<svg width="32" height="22" viewBox="0 0 32 22" fill="none" xmlns="http://www.w3.org/2000/svg">
<path d="M1.59135 12.4258H30.2357C30.6998 12.4258 31.0811 12.2802 31.3795 11.989C31.6778 11.6977 31.827 11.3256 31.827 10.8726C31.827 10.4196 31.6778 10.0474 31.3795 9.7562C31.0811 9.46497 30.6998 9.31936 30.2357 9.31936H1.59135C1.12721 9.31936 0.745947 9.46497 0.447567 9.7562C0.149187 10.0474 0 10.4196 0 10.8726C0 11.3256 0.149187 11.6977 0.447567 11.989C0.745947 12.2802 1.12721 12.4258 1.59135 12.4258ZM1.59135 3.10645H30.2357C30.6998 3.10645 31.0811 2.96084 31.3795 2.66961C31.6778 2.37838 31.827 2.00625 31.827 1.55323C31.827 1.1002 31.6778 0.728076 31.3795 0.436845C31.0811 0.145613 30.6998 0 30.2357 0H1.59135C1.12721 0 0.745947 0.145613 0.447567 0.436845C0.149187 0.728076 0 1.1002 0 1.55323C0 2.00625 0.149187 2.37838 0.447567 2.66961C0.745947 2.96084 1.12721 3.10645 1.59135 3.10645ZM1.59135 21.7452H30.2357C30.6998 21.7452 31.0811 21.5996 31.3795 21.3083C31.6778 21.0171 31.827 20.645 31.827 20.1919C31.827 19.7389 31.6778 19.3668 31.3795 19.0756C31.0811 18.7843 30.6998 18.6387 30.2357 18.6387H1.59135C1.12721 18.6387 0.745947 18.7843 0.447567 19.0756C0.149187 19.3668 0 19.7389 0 20.1919C0 20.645 0.149187 21.0171 0.447567 21.3083C0.745947 21.5996 1.12721 21.7452 1.59135 21.7452Z" fill="white"/>
</svg>
